<svg width="26" height="26" viewBox="0 0 26 26" fill="none" xmlns="http://www.w3.org/2000/svg">
<path d="M1.19632 0C0.53561 0 0 0.53561 0 1.19632C0 1.85703 0.53561 2.39264 1.19632 2.39264H3.54106L6.25042 13.2301C4.91487 13.6006 3.93456 14.8252 3.93456 16.2788C3.93456 18.026 5.35095 19.4424 7.09816 19.4424H22.1806C22.8413 19.4424 23.3769 18.9068 23.3769 18.2461C23.3769 17.5854 22.8413 17.0498 22.1806 17.0498H7.09816C6.67237 17.0498 6.3272 16.7046 6.3272 16.2788C6.3272 15.853 6.67237 15.5078 7.09816 15.5078H22.1806C22.7296 15.5078 23.2081 15.1342 23.3412 14.6017L25.9643 4.10951C26.0536 3.75212 25.9733 3.3735 25.7466 3.08313C25.5199 2.79276 25.1721 2.62304 24.8037 2.62304H6.06493L5.63572 0.906169C5.50258 0.373607 5.02407 0 4.47512 0H1.19632Z" fill="#4d4d4d"/>
<path d="M7.75392 20.9843C6.36888 20.9843 5.24608 22.1071 5.24608 23.4922C5.24608 24.8772 6.36888 26 7.75392 26C9.13896 26 10.2618 24.8772 10.2618 23.4922C10.2618 22.1071 9.13896 20.9843 7.75392 20.9843Z" fill="#4d4d4d"/>
<path d="M20.8691 20.9843C19.4841 20.9843 18.3613 22.1071 18.3613 23.4922C18.3613 24.8772 19.4841 26 20.8691 26C22.2542 26 23.3769 24.8772 23.3769 23.4922C23.3769 22.1071 22.2542 20.9843 20.8691 20.9843Z" fill="#4d4d4d"/>
</svg>
