<svg id="svg" xmlns="http://www.w3.org/2000/svg" xmlns:xlink="http://www.w3.org/1999/xlink" width="100" height="100" viewBox="0, 0, 400,400"><g id="svgg"><path id="path0" d="M189.927 3.979 C 172.992 6.582,156.490 16.943,147.468 30.636 C 144.220 35.567,8.627 298.586,4.979 307.031 C -10.807 343.586,9.262 385.337,47.311 395.094 C 54.547 396.949,341.831 397.279,350.781 395.442 C 389.035 387.591,410.663 345.246,395.436 308.014 C 392.544 300.941,255.989 35.901,252.519 30.624 C 239.828 11.326,213.909 0.292,189.927 3.979 M207.035 79.351 C 218.964 82.064,227.971 91.073,230.814 103.136 C 232.341 109.615,232.648 242.331,231.152 249.376 C 224.931 278.673,185.338 284.287,171.873 257.781 C 167.890 249.940,167.864 249.372,168.121 173.828 L 168.359 103.516 170.112 99.219 C 176.324 83.985,191.501 75.818,207.035 79.351 M207.453 293.392 C 236.392 300.881,240.367 339.245,213.592 352.645 C 190.720 364.091,163.833 343.175,169.078 318.017 C 172.806 300.136,190.252 288.941,207.453 293.392 " stroke="none" fill="#4D4D4D" fill-rule="evenodd"></path></g></svg>