<svg width="22" height="28" viewBox="0 0 22 28" fill="4d4d4d" xmlns="http://www.w3.org/2000/svg">
<path fill-rule="evenodd" clip-rule="evenodd" d="M5.79297 0.114337C5.17059 0.403131 5.07931 0.667295 5.07931 2.17961V3.39717L2.81944 3.39738C-0.243625 3.39765 0.00484132 3.21096 0.00484132 5.5117C0.00484132 7.25205 0.0124875 7.29231 0.387216 7.52081C0.658688 7.68632 21.3413 7.68632 21.6128 7.52081C21.9875 7.29231 21.9952 7.25205 21.9952 5.5117C21.9952 3.21096 22.2436 3.39765 19.1806 3.39738L16.9207 3.39717V2.17961C16.9207 0.667295 16.8294 0.403131 16.207 0.114337C15.8785 -0.0381123 6.12149 -0.0381123 5.79297 0.114337ZM15.7786 0.933354C16.0415 1.04317 16.0749 1.2055 16.0749 2.37421V3.39717H11H5.92512V2.37421C5.92512 1.22025 5.95997 1.04432 6.20979 0.935587C6.45744 0.827729 15.521 0.825632 15.7786 0.933354ZM21.1498 5.5117V6.78042H11H0.850248V5.5117V4.24299H11H21.1498V5.5117ZM1.80182 8.57781C1.72604 8.65353 1.69586 8.75462 1.69538 8.93461C1.69471 9.18003 3.30892 26.3544 3.36515 26.6997C3.43309 27.1173 2.6837 27.0799 11 27.0799C19.3163 27.0799 18.5669 27.1173 18.6348 26.6997C18.6911 26.3544 20.3053 9.18003 20.3046 8.93461C20.303 8.34342 19.5303 8.27027 19.4356 8.85233C19.42 8.94848 19.0495 12.8214 18.6123 17.4588C18.1751 22.0963 17.8049 25.9678 17.7896 26.0623L17.7617 26.2341H11H4.2383L4.21042 26.0623C4.19507 25.9678 3.82487 22.0963 3.38769 17.4588C2.49979 8.04028 2.57219 8.71382 2.4332 8.57483C2.2926 8.43422 1.94371 8.43585 1.80182 8.57781ZM6.03088 9.84653C5.94982 9.92752 5.92499 10.0232 5.92458 10.2562C5.92391 10.6113 6.70611 23.3489 6.74935 23.6873C6.83711 24.374 7.61607 24.2757 7.61736 23.5777C7.61797 23.1972 6.83853 10.5177 6.79333 10.1731C6.73974 9.76526 6.30033 9.57702 6.03088 9.84653ZM10.6829 9.84653C10.5782 9.95114 10.5771 10.0227 10.5771 16.9302C10.5771 24.8399 10.5347 24.1196 11 24.1196C11.4653 24.1196 11.4229 24.8399 11.4229 16.9302C11.4229 9.02047 11.4653 9.74077 11 9.74077C10.8591 9.74077 10.7533 9.77602 10.6829 9.84653ZM15.3386 9.84267C15.1984 9.98287 15.2237 9.66539 14.7802 16.8509C14.3316 24.1186 14.3418 23.8667 14.489 24.0138C14.7586 24.2835 15.1985 24.0948 15.2506 23.6873C15.2939 23.3489 16.0761 10.6113 16.0754 10.2562C16.0745 9.78103 15.6426 9.53865 15.3386 9.84267Z" fill="#4D4D4D"/>
</svg>
