<svg width="49" height="49" viewBox="0 0 49 49" fill="4d4d4d" xmlns="http://www.w3.org/2000/svg">
<path fill-rule="evenodd" clip-rule="evenodd" d="M22.1612 0.111614C4.8198 2.17264 -5.00887 19.9436 2.60926 35.4628C8.64619 47.761 24.1784 52.6481 36.2787 46.0569C54.0206 36.3924 52.9871 10.2949 34.5389 2.12103C30.9235 0.519147 25.7706 -0.317324 22.1612 0.111614ZM26.4641 7.65575C32.2414 9.12566 34.5002 16.0743 30.6777 20.6179C26.026 26.1473 16.9124 23.0816 16.5467 15.8646C16.2764 10.5299 21.3275 6.34901 26.4641 7.65575ZM30.6618 27.6725C36.1559 28.5634 39.5118 35.5809 35.8429 38.5064C29.2104 43.7946 19.9769 43.8373 13.3854 38.6102C11.8697 37.4082 11.4587 36.2347 11.8323 34.1754C12.4116 30.9834 15.2049 28.2033 18.361 27.6776C19.0925 27.5558 29.9145 27.5513 30.6618 27.6725Z" fill="#4D4D4D"/>
</svg>
